<?xml version="1.0" standalone="no"?>
<!DOCTYPE svg PUBLIC "-//W3C//DTD SVG 20010904//EN"
 "http://www.w3.org/TR/2001/REC-SVG-20010904/DTD/svg10.dtd">
<svg version="1.0" xmlns="http://www.w3.org/2000/svg"
 width="300.000000pt" height="116.000000pt" viewBox="0 0 300.000000 116.000000"
 preserveAspectRatio="xMidYMid meet">
<metadata>
Created by potrace 1.10, written by Peter Selinger 2001-2011
</metadata>
<g transform="translate(0.000000,116.000000) scale(0.100000,-0.100000)"
fill="#000000" stroke="none">
<path d="M720 982 c0 -4 5 -13 11 -19 19 -19 -1 -53 -39 -70 -130 -54 -172
-87 -172 -137 0 -7 -16 -30 -35 -49 -47 -47 -49 -104 -7 -147 38 -37 84 -49
217 -56 237 -13 355 41 355 163 0 54 -20 94 -62 127 -47 35 -84 43 -90 18 -7
-27 -46 -51 -99 -61 -44 -8 -44 -8 -17 -19 32 -13 76 -1 121 32 26 19 30 19
55 5 54 -30 71 -111 36 -165 -34 -51 -157 -75 -330 -63 -100 7 -154 27 -174
63 -14 27 -5 50 41 104 16 18 29 41 29 51 0 26 49 65 107 87 26 9 64 32 83 51
20 18 41 33 47 33 7 0 21 -13 32 -29 26 -36 16 -73 -27 -95 -36 -19 -61 -46
-41 -46 27 1 98 39 108 58 20 38 13 86 -16 115 -42 39 -133 73 -133 49z"/>
<path d="M1238 874 c-34 -18 -48 -43 -48 -84 0 -41 34 -71 103 -93 30 -10 58
-24 61 -32 20 -53 -76 -79 -99 -27 -7 16 -18 22 -42 22 -37 0 -40 -8 -18 -49
19 -38 63 -55 127 -49 63 6 98 40 98 93 0 41 -38 76 -109 100 -58 19 -72 42
-41 67 29 23 45 23 70 -2 11 -11 33 -20 49 -20 24 0 28 3 24 20 -3 11 -19 31
-35 45 -34 29 -96 33 -140 9z"/>
<path d="M1452 704 c4 -91 6 -98 32 -120 32 -28 81 -31 108 -7 17 15 18 15 18
0 0 -12 9 -17 30 -17 l30 0 0 120 0 120 -30 0 -30 0 0 -79 c0 -84 -12 -111
-49 -111 -38 0 -53 33 -50 112 l2 73 -32 3 -33 3 4 -97z"/>
<path d="M1747 780 c-14 -11 -31 -36 -37 -54 -32 -97 75 -193 151 -137 l29 22
0 -23 c0 -58 -69 -90 -111 -52 -10 9 -30 14 -51 12 l-33 -3 37 -38 c31 -32 42
-37 83 -37 52 0 82 12 107 44 15 17 18 43 18 154 l0 132 -31 0 c-24 0 -30 -4
-25 -15 5 -14 4 -14 -16 0 -31 21 -90 19 -121 -5z m116 -42 c9 -7 19 -25 22
-40 5 -21 1 -33 -19 -52 -14 -15 -32 -26 -41 -26 -9 0 -27 11 -41 26 -20 19
-24 31 -19 52 7 32 31 52 60 52 12 0 29 -6 38 -12z"/>
<path d="M2015 775 c-14 -13 -25 -31 -25 -40 0 -21 56 -20 64 1 4 10 16 14 38
12 25 -2 34 -8 36 -25 3 -21 -1 -23 -37 -23 -44 0 -92 -15 -103 -33 -13 -20
-9 -61 8 -85 19 -27 88 -31 116 -5 17 15 18 15 18 0 0 -12 9 -17 30 -17 l30 0
0 86 c0 122 -21 153 -103 154 -38 0 -53 -5 -72 -25z m115 -118 c0 -33 -52 -65
-78 -48 -25 16 -9 46 28 52 19 4 38 7 43 8 4 0 7 -5 7 -12z"/>
<path d="M2230 680 l0 -120 33 0 32 0 -3 68 c-3 57 0 72 18 95 13 16 31 27 46
27 19 0 24 5 24 25 0 20 -5 25 -27 25 -14 0 -35 -7 -45 -17 -17 -15 -18 -15
-18 0 0 12 -9 17 -30 17 l-30 0 0 -120z"/>
<path d="M2400 795 c0 -2 21 -53 46 -112 l46 -107 -21 -51 c-12 -28 -21 -53
-21 -56 0 -4 14 -4 32 0 30 6 34 14 95 161 34 85 63 159 63 163 0 5 -14 7 -31
5 -29 -3 -34 -8 -59 -78 -31 -83 -25 -86 -65 28 -18 48 -21 52 -52 52 -18 0
-33 -2 -33 -5z"/>
<path d="M460 504 c1 -5 16 -70 34 -144 35 -142 46 -161 107 -175 l27 -7 -13
64 c-25 124 -28 158 -12 158 15 0 17 -8 46 -185 6 -38 9 -40 44 -43 l37 -3 0
111 c0 85 3 111 13 108 8 -3 13 -37 15 -111 l3 -107 33 0 33 0 17 89 c9 49 16
98 16 109 0 24 18 39 30 26 4 -5 0 -54 -10 -109 -10 -55 -17 -102 -15 -103 9
-10 77 22 89 41 8 12 24 69 36 127 13 58 27 116 32 129 5 13 7 25 5 27 -2 2
-27 -6 -57 -17 -136 -52 -349 -45 -492 16 -10 4 -18 3 -18 -1z m117 -59 c77
-21 255 -20 335 0 33 9 63 14 65 11 9 -9 -18 -138 -39 -189 -35 -82 -48 -55
-27 58 9 52 9 60 -9 77 -18 18 -19 18 -40 1 -21 -17 -30 -48 -48 -163 -12 -74
-24 -53 -28 49 -4 79 -15 111 -41 111 -27 0 -40 -33 -41 -112 -2 -113 -23
-121 -39 -14 -5 28 -9 53 -9 56 -13 50 -19 65 -32 78 -14 13 -18 13 -36 -6
-19 -19 -20 -26 -11 -96 7 -59 6 -76 -3 -76 -18 0 -20 6 -43 96 -38 155 -43
142 46 119z"/>
<path d="M1635 433 c-59 -15 -91 -67 -82 -135 8 -62 44 -93 108 -93 43 0 54 4
75 28 13 15 24 32 24 38 0 16 -36 9 -55 -11 -26 -29 -69 -26 -95 7 -55 70 29
174 90 113 21 -21 60 -27 60 -10 0 15 -50 60 -66 60 -7 0 -18 2 -26 4 -7 2
-22 1 -33 -1z"/>
<path d="M1210 315 l0 -116 72 3 c60 2 73 6 76 21 3 15 -5 17 -53 17 l-57 0 4
95 c3 93 2 95 -19 95 -23 0 -23 -2 -23 -115z"/>
<path d="M1390 315 l0 -115 70 0 c63 0 70 2 70 20 0 17 -7 20 -50 20 l-50 0 0
95 c0 88 -1 95 -20 95 -19 0 -20 -7 -20 -115z"/>
</g>
</svg>
